<?xml version="1.0" encoding="UTF-8"?>
<svg id="svg8" width="48" height="48" version="1.1" viewBox="0 0 48 48" xml:space="preserve" xmlns="http://www.w3.org/2000/svg" xmlns:cc="http://creativecommons.org/ns#" xmlns:dc="http://purl.org/dc/elements/1.1/" xmlns:rdf="http://www.w3.org/1999/02/22-rdf-syntax-ns#"><metadata id="metadata14"><rdf:RDF><cc:Work rdf:about=""><dc:format>image/svg+xml</dc:format><dc:type rdf:resource="http://purl.org/dc/dcmitype/StillImage"/><dc:title/></cc:Work></rdf:RDF></metadata><g id="Icons" transform="matrix(1.7811 0 0 1.7811 -18.746 -18.746)"><g id="Icons_12_"><g id="g4"><path id="path2" d="m34.955 10.525h-21.91c-1.39 0-2.52 1.13-2.52 2.5201v21.91c0 1.39 1.13 2.52 2.52 2.52h21.91c1.39 0 2.52-1.13 2.52-2.52v-21.91c0-1.3901-1.13-2.5201-2.52-2.5201zm-2.78 9.2901s-0.02 1.88-0.3 3.06c-0.28 1.17-1.22 4.44-4.02 6.74-2.81 2.3-6.22 2.8-8.16 2.6699-1.94-0.13-4.31-0.87-5.85-1.82 0 0 3.51 0.38 6.1-1.76 0 0-2.61 0.1201-3.85-2.8899 0 0 0.89 0.1599 1.85-0.1101 0 0-3.3-0.6-3.34-4.1499 0 0 1.09 0.5299 1.89 0.4799 0 0-3.15-2.4099-1.23-5.5199 0 0 3.15 4.18 8.62 4.34-1.32-3.67 4.63-7.1501 7.09-3.81 0 0 0.95-0.03 2.68-0.97 0 0-0.41 1.3199-1.74 2.1999 0 0 1-0.0099 2.23-0.5399-0.09 0.14-0.84 1.2899-1.97 2.08z" fill="#4aa0ec"/></g></g></g></svg>
